Coordinates
version=1
nRows=17
nColumns=24
inDegrees=yes

Units are S.I. units (second, meters, Newtons, ...)
Angles are in degrees.

endheader
time	pelvis_tilt	pelvis_list	pelvis_rotation	pelvis_tx	pelvis_ty	pelvis_tz	hip_flexion_r	hip_adduction_r	hip_rotation_r	knee_angle_r	ankle_angle_r	subtalar_angle_r	mtp_angle_r	hip_flexion_l	hip_adduction_l	hip_rotation_l	knee_angle_l	ankle_angle_l	subtalar_angle_l	mtp_angle_l	lumbar_extension	lumbar_bending	lumbar_rotation
      1.68800000	     -1.01189476	     -0.20315237	     -3.49778952	      1.30206695	      1.01178275	      0.32551947	     24.72265883	     -3.87094132	     -6.76657458	    -76.43761535	     -3.18006807	     -0.37283995	     -1.05431966	     14.66626368	      0.17547387	     -9.54762763	    -13.37946023	     -2.66794677	     -9.38065012	      4.73833994	     -8.94621231	     -2.46192155	      1.67350835
      1.69216667	     -0.94944268	     -0.29275520	     -3.35362834	      1.30677277	      1.01279722	      0.32522039	     25.34382010	     -3.72416566	     -6.90632978	    -76.15268376	     -2.73706551	     -0.42691873	     -1.02410984	     14.19165056	      0.16668391	     -9.41589041	    -13.13787597	     -2.61160550	     -9.38613435	      4.72600436	     -9.05806090	     -2.33685129	      1.59319638
      1.69633333	     -0.81247815	     -0.44943156	     -3.04010366	      1.31151975	      1.01396990	      0.32444167	     25.80031234	     -3.63250073	     -7.24481460	    -75.74597664	     -2.34264441	     -0.25436142	     -0.94562164	     13.65631137	      0.15126670	     -9.05371794	    -12.91709835	     -2.48942161	     -9.40309555	      4.68866169	     -9.25741701	     -2.09916341	      1.35567902
      1.70050000	     -0.76002689	     -0.51652082	     -2.90915640	      1.31619290	      1.01490573	      0.32418869	     26.41101147	     -3.51125424	     -7.36821083	    -75.37182092	     -1.89341366	     -0.31498444	     -0.92248017	     13.18604578	      0.15486387	     -8.93726013	    -12.65511104	     -2.44080479	     -9.40840129	      4.67702679	     -9.36505856	     -1.99982269	      1.28338860
      1.70466667	     -0.54872830	     -0.68777018	     -2.57413685	      1.32091475	      1.01618375	      0.32333710	     26.73691479	     -3.43583512	     -7.74525213	    -74.84133575	     -1.52806221	     -0.23633239	     -0.83977970	     12.56042770	      0.12846136	     -8.53559086	    -12.40672181	     -2.34867240	     -9.47380604	      4.61840177	     -9.65822224	     -1.73594654	      0.98198777
      1.70883333	     -0.51112548	     -0.75465524	     -2.44890142	      1.32559535	      1.01702571	      0.32308894	     27.32948842	     -3.32239106	     -7.86163442	    -74.37151886	     -1.09087575	     -0.21902101	     -0.81989790	     12.11597420	      0.12172590	     -8.43219961	    -12.16155737	     -2.27120949	     -9.44710891	      4.60517486	     -9.74072535	     -1.63749208	      0.94062548
      1.71300000	     -0.38960882	     -0.89952693	     -2.14978085	      1.33032289	      1.01805721	      0.32237341	     27.74066274	     -3.25687697	     -8.19328508	    -73.77558211	     -0.71433601	     -0.08371029	     -0.78024038	     11.59744507	      0.08728807	     -8.11309448	    -11.94035037	     -2.13840152	     -9.42692766	      4.56461736	     -9.91833382	     -1.40596591	      0.76197202
      1.71716667	     -0.26203379	     -0.99432913	     -1.94930746	      1.33500748	      1.01905121	      0.32188530	     28.16204474	     -3.18575398	     -8.41168915	    -73.16142029	     -0.33428529	     -0.06906128	     -0.74620538	     11.04374154	      0.07989560	     -7.89229808	    -11.65495104	     -2.08866791	     -9.48034974	      4.51543024	    -10.10727018	     -1.24829901	      0.55007558
      1.72133333	     -0.24301055	     -1.04119964	     -1.81891347	      1.33961873	      1.01974378	      0.32165598	     28.73075996	     -3.10773175	     -8.53487521	    -72.55878549	      0.05689733	     -0.11824100	     -0.73782971	     10.63341891	      0.08383895	     -7.77705864	    -11.43544169	     -1.99172796	     -9.45844763	      4.50479793	    -10.17672657	     -1.17807350	      0.53269539
      1.72550000	     -0.08465054	     -1.18161833	     -1.50899036	      1.34431752	      1.02076111	      0.32089546	     29.03897416	     -3.07209881	     -8.88566897	    -71.80979708	      0.39726508	     -0.05703433	     -0.72591522	     10.06981374	      0.04804586	     -7.43038393	    -11.18334837	     -1.88516239	     -9.47160418	      4.44871052	    -10.39799567	     -0.93508421	      0.27758101
      1.72966667	     -0.00403921	     -1.24816649	     -1.33237825	      1.34897064	      1.02154038	      0.32049051	     29.47009917	     -3.02746431	     -9.07362711	    -71.07368485	      0.75314416	     -0.00919591	     -0.72595964	      9.58111423	      0.04584803	     -7.24877884	    -10.93296783	     -1.79126914	     -9.47739244	      4.39709663	    -10.52744912	     -0.81471886	      0.17742884
      1.73383333	     -0.00492800	     -1.27330882	     -1.21649572	      1.35357029	      1.02209222	      0.32029889	     30.00605079	     -2.97494215	     -9.17449970	    -70.33764877	      1.10698497	     -0.01780104	     -0.72664761	      9.19221754	      0.05968660	     -7.15862165	    -10.71366062	     -1.69308316	     -9.45031607	      4.38786138	    -10.56709237	     -0.76727886	      0.14593746
      1.73800000	      0.06821612	     -1.37294845	     -0.95057487	      1.35823717	      1.02282269	      0.31966818	     30.37584013	     -2.96578035	     -9.46959663	    -69.47918416	      1.38987463	      0.08453237	     -0.74667889	      8.73038155	      0.03626231	     -6.87462657	    -10.48380266	     -1.56181249	     -9.41613417	      4.35339076	    -10.68878470	     -0.57240623	     -0.01980559
      1.74216667	      0.06624422	     -1.37498434	     -0.84125408	      1.36282620	      1.02330399	      0.31950766	     30.87469513	     -2.93846730	     -9.56007645	    -68.65069395	      1.72621899	      0.04300674	     -0.75453464	      8.33994638	      0.06872808	     -6.78669631	    -10.25289295	     -1.47916937	     -9.41504211	      4.34338946	    -10.72554759	     -0.55493438	     -0.08534443
      1.74633333	      0.13292520	     -1.44784433	     -0.59014183	      1.36743837	      1.02393659	      0.31892138	     31.21902431	     -2.95373289	     -9.82955453	    -67.71449351	      1.99202376	      0.14271374	     -0.79222049	      7.88909251	      0.06215959	     -6.52056269	    -10.03216245	     -1.34737521	     -9.38506005	      4.31217550	    -10.84470977	     -0.38940734	     -0.25641576
      1.75050000	      0.10070183	     -1.40738248	     -0.49928107	      1.37206434	      1.02427887	      0.31877019	     31.72012854	     -2.97107941	     -9.89194961	    -66.81899311	      2.26669012	      0.08287094	     -0.79953104	      7.51755803	      0.13521505	     -6.45444860	     -9.78122736	     -1.24531920	     -9.35642744	      4.30817508	    -10.84864733	     -0.40095770	     -0.29612019
      1.75466667	      0.15111364	     -1.47940187	     -0.24430966	      1.37666252	      1.02481655	      0.31823484	     32.03472174	     -2.98637266	    -10.16157749	    -65.78853071	      2.52154076	      0.17339155	     -0.85168377	      7.09922723	      0.11502016	     -6.20329544	     -9.58699034	     -1.11634367	     -9.31882027	      4.28464263	    -10.94418148	     -0.25414278	     -0.48980112
